<svg width="32" height="32" viewBox="0 0 32 32" fill="none" xmlns="http://www.w3.org/2000/svg">
<g id="Icons / Oval + Icon">
<circle id="canvas oval" cx="16" cy="16" r="16" fill="white"/>
<mask id="mask0_215:105" style="mask-type:alpha" maskUnits="userSpaceOnUse" x="0" y="0" width="32" height="32">
<circle id="canvas oval_2" cx="16" cy="16" r="16" fill="white"/>
</mask>
<g mask="url(#mask0_215:105)">
<g id="icon">
<path id="fill" fill-rule="evenodd" clip-rule="evenodd" d="M18.8685 15.2L16.2342 12.5657C15.9218 12.2533 15.9218 11.7467 16.2342 11.4343C16.5466 11.1219 17.0532 11.1219 17.3656 11.4343L21.3656 15.4343C21.678 15.7467 21.678 16.2533 21.3656 16.5657L17.3656 20.5657C17.0532 20.8781 16.5466 20.8781 16.2342 20.5657C15.9218 20.2533 15.9218 19.7467 16.2342 19.4343L18.8685 16.8H11.1999C10.7581 16.8 10.3999 16.4418 10.3999 16C10.3999 15.5582 10.7581 15.2 11.1999 15.2H18.8685Z" fill="#0B24FB"/>
<mask id="mask1_215:105" style="mask-type:alpha" maskUnits="userSpaceOnUse" x="10" y="11" width="12" height="10">
<path id="fill_2" fill-rule="evenodd" clip-rule="evenodd" d="M18.8685 15.2L16.2342 12.5657C15.9218 12.2533 15.9218 11.7467 16.2342 11.4343C16.5466 11.1219 17.0532 11.1219 17.3656 11.4343L21.3656 15.4343C21.678 15.7467 21.678 16.2533 21.3656 16.5657L17.3656 20.5657C17.0532 20.8781 16.5466 20.8781 16.2342 20.5657C15.9218 20.2533 15.9218 19.7467 16.2342 19.4343L18.8685 16.8H11.1999C10.7581 16.8 10.3999 16.4418 10.3999 16C10.3999 15.5582 10.7581 15.2 11.1999 15.2H18.8685Z" fill="white"/>
</mask>
<g mask="url(#mask1_215:105)">
</g>
</g>
</g>
</g>
</svg>
